<svg width="18" height="18" viewBox="0 0 18 18" fill="none" xmlns="http://www.w3.org/2000/svg">
<path id="Star 5" d="M8.54315 1.03819C8.77552 0.597761 9.40629 0.597761 9.63866 1.03819L11.9775 5.47111C12.0671 5.64096 12.2304 5.75962 12.4197 5.79237L17.3584 6.64689C17.849 6.73178 18.044 7.33168 17.6969 7.68878L14.2037 11.283C14.0698 11.4207 14.0075 11.6127 14.0348 11.8028L14.7482 16.7638C14.8191 17.2567 14.3088 17.6275 13.862 17.4078L9.36418 15.1962C9.19185 15.1115 8.98996 15.1115 8.81763 15.1962L4.31986 17.4078C3.87299 17.6275 3.36269 17.2567 3.43358 16.7638L4.14703 11.8028C4.17436 11.6127 4.11197 11.4207 3.97813 11.283L0.484911 7.68878C0.137848 7.33168 0.332765 6.73179 0.823442 6.64689L5.76215 5.79237C5.95137 5.75963 6.1147 5.64096 6.20431 5.47111L8.54315 1.03819Z" fill="#F8AB18"/>
</svg>
